<?xml version="1.0" encoding="iso-8859-1"?>
<!-- Uploaded to: SVG Repo, www.svgrepo.com, Generator: SVG Repo Mixer Tools -->
<svg height="800px" width="800px" version="1.1" id="Layer_1" xmlns="http://www.w3.org/2000/svg" xmlns:xlink="http://www.w3.org/1999/xlink" 
	 viewBox="0 0 392.598 392.598" xml:space="preserve">
<path style="fill:#FFC10D;" d="M304.226,335.515c3.297-1.681,7.37-1.552,10.537,0.453l20.816,12.671l13.123-13.123l-12.671-20.816
	c-1.939-3.168-2.069-7.176-0.453-10.537c1.487-3.038,2.78-6.012,3.814-9.051c1.164-3.556,4.073-6.271,7.758-7.111l23.596-5.689
	v-18.618l-23.596-5.689c-3.62-0.905-6.594-3.556-7.758-7.111c-1.034-3.038-2.263-6.012-3.814-9.051
	c-1.681-3.297-1.552-7.37,0.453-10.537l12.671-20.816l-13.123-13.123l-20.816,12.671c-3.168,1.939-7.176,2.069-10.537,0.453
	c-3.038-1.552-6.077-2.78-9.051-3.814c-3.556-1.164-6.271-4.073-7.176-7.822l-5.689-23.596h-18.618l-5.689,23.596
	c-0.84,3.62-3.556,6.594-7.111,7.758c-3.038,1.034-6.077,2.263-9.051,3.814c-3.297,1.681-7.37,1.552-10.602-0.453l-20.816-12.671
	l-13.123,13.123l12.671,20.816c1.939,3.168,2.069,7.176,0.453,10.537c-1.552,3.038-2.78,6.077-3.814,9.051
	c-1.164,3.556-4.073,6.271-7.758,7.111l-23.596,5.689v18.618l23.596,5.689c3.62,0.905,6.594,3.556,7.822,7.111
	c1.034,3.038,2.263,6.012,3.814,9.051c1.681,3.297,1.552,7.37-0.453,10.537l-12.671,20.816l13.123,13.123l20.816-12.671
	c3.168-1.939,7.176-2.069,10.537-0.453c3.038,1.487,6.077,2.78,9.051,3.814c3.556,1.164,6.271,4.073,7.111,7.758l5.689,23.596
	h18.554l5.689-23.596c0.84-3.62,3.556-6.594,7.111-7.758C298.085,338.295,301.188,337.067,304.226,335.515z"/>
<path style="fill:#FFFFFF;" d="M273.002,248.307c-13.576,0-24.63,11.055-24.63,24.63c0,13.576,11.055,24.63,24.63,24.63
	s24.63-11.055,24.63-24.63C297.568,259.362,286.513,248.307,273.002,248.307z"/>
<g>
	<path style="fill:#194F82;" d="M273.002,226.521c-25.6,0-46.416,20.881-46.416,46.416c0,25.6,20.881,46.416,46.416,46.416
		s46.416-20.881,46.416-46.416C319.418,247.273,298.602,226.521,273.002,226.521z M273.002,297.503
		c-13.576,0-24.63-11.055-24.63-24.63c0-13.576,11.055-24.63,24.63-24.63s24.63,11.055,24.63,24.63
		C297.568,286.448,286.513,297.503,273.002,297.503z"/>
	<path style="fill:#194F82;" d="M384.194,244.428l-26.376-6.4c-0.065-0.129-0.129-0.388-0.259-0.517l14.093-23.079
		c2.65-4.331,1.939-9.826-1.616-13.382l-25.277-25.277c-3.556-3.556-9.115-4.267-13.382-1.616l-13.188,8.016
		c1.875-3.943,3.038-8.275,3.038-12.735v-51.006c0-7.37-2.651-13.964-7.046-19.135c4.396-5.301,7.046-12.154,7.046-19.653V30.836
		C321.228,13.834,307.394,0,290.392,0H30.772C13.834,0,0,13.834,0,30.836v48.808c0,7.434,2.651,14.287,7.046,19.653
		C2.651,104.404,0,111.127,0,118.432v51.006c0,7.111,2.521,13.705,6.723,18.877C2.521,193.422,0,199.952,0,207.063v51.006
		c0,16.356,13.382,29.737,29.737,29.737h123.669v3.038c0,5.042,3.491,9.438,8.339,10.602l26.376,6.4
		c0.065,0.129,0.129,0.323,0.259,0.517l-14.158,23.079c-2.65,4.331-1.939,9.826,1.616,13.382l25.277,25.277
		c3.556,3.556,9.115,4.267,13.382,1.616l23.079-14.093c0.129,0.065,0.388,0.129,0.517,0.259l6.4,26.376
		c1.164,4.848,5.56,8.339,10.602,8.339h35.749c5.042,0,9.438-3.491,10.602-8.339l6.4-26.376c0.129-0.065,0.388-0.129,0.517-0.259
		l23.079,14.093c4.331,2.65,9.826,1.939,13.382-1.616l25.277-25.277c3.556-3.556,4.267-9.115,1.616-13.382l-14.093-23.079
		c0.065-0.129,0.129-0.323,0.259-0.517l26.376-6.4c4.848-1.164,8.339-5.56,8.339-10.602V255.03
		C392.533,249.988,389.042,245.657,384.194,244.428z M21.786,30.772c0-4.978,4.008-9.051,9.051-9.051h259.62
		c4.913,0,9.05,4.073,9.05,9.051V79.58c0,4.978-4.008,9.051-9.05,9.051H30.836c-4.978,0-9.051-4.008-9.051-9.051V30.772z
		 M21.786,118.368c0-4.396,3.556-7.952,7.952-7.952h1.099h259.62h1.099c4.396,0,7.952,3.556,7.952,7.952v39.305
		c-2.004-2.651-5.172-4.331-8.663-4.331h-35.75c-5.042,0-9.438,3.491-10.602,8.339l-6.4,26.376
		c-0.129,0.065-0.388,0.129-0.517,0.259l-23.079-14.093c-4.331-2.651-9.826-1.939-13.382,1.616l-1.616,1.616H29.737
		c-4.396,0-7.952-3.556-7.952-7.952C21.786,169.503,21.786,118.368,21.786,118.368z M161.745,244.428
		c-4.848,1.164-8.339,5.56-8.339,10.602v10.99H29.737c-4.396,0-7.952-3.556-7.952-7.952v-51.006c0-4.396,3.556-7.952,7.952-7.952
		h147.976l-1.875,1.875c-3.556,3.556-4.267,9.115-1.616,13.382l14.093,23.079c-0.065,0.129-0.129,0.323-0.259,0.517L161.745,244.428
		z M370.747,282.182l-23.596,5.689c-3.62,0.84-6.594,3.556-7.758,7.111c-1.034,3.038-2.263,6.012-3.814,9.051
		c-1.681,3.297-1.552,7.37,0.453,10.537l12.671,20.816l-13.123,13.123l-20.687-12.671c-3.168-1.939-7.176-2.069-10.537-0.453
		c-3.038,1.487-6.077,2.78-9.051,3.814c-3.556,1.164-6.271,4.073-7.111,7.758l-5.689,23.596h-18.618l-5.689-23.596
		c-0.84-3.62-3.556-6.594-7.111-7.758c-3.038-1.034-6.012-2.263-9.051-3.814c-3.297-1.681-7.37-1.552-10.537,0.453l-20.816,12.671
		l-13.123-13.123l12.671-20.816c1.939-3.168,2.069-7.176,0.453-10.537c-1.552-3.038-2.78-6.012-3.814-9.051
		c-1.164-3.556-4.073-6.271-7.822-7.111l-23.467-5.689v-18.618l23.596-5.689c3.62-0.905,6.594-3.556,7.758-7.111
		c1.034-3.038,2.263-6.012,3.814-9.051c1.681-3.297,1.487-7.37-0.453-10.537l-12.8-20.752l13.123-13.123l20.816,12.671
		c3.232,1.939,7.176,2.069,10.602,0.453c3.038-1.487,6.012-2.78,9.051-3.814c3.556-1.164,6.271-4.073,7.111-7.758l5.689-23.596
		h18.618l5.689,23.596c0.84,3.62,3.556,6.594,7.176,7.822c2.909,1.034,6.012,2.263,9.051,3.814c3.297,1.681,7.37,1.552,10.537-0.453
		l20.816-12.671l13.123,13.123l-12.671,20.816c-1.939,3.168-2.069,7.176-0.453,10.537c1.487,3.038,2.78,6.012,3.814,9.051
		c1.164,3.556,4.073,6.271,7.758,7.111l23.596,5.689v18.489H370.747z"/>
</g>
<path style="fill:#56ACE0;" d="M29.737,265.956h123.669v-10.99c0-5.042,3.491-9.438,8.339-10.602l26.376-6.4
	c0.065-0.129,0.129-0.323,0.259-0.517l-14.093-23.079c-2.65-4.331-1.939-9.826,1.616-13.382l1.875-1.875H29.737
	c-4.396,0-7.952,3.556-7.952,7.952v51.006C21.786,262.4,25.341,265.956,29.737,265.956z"/>
<path style="fill:#FFFFFF;" d="M255.095,153.341h35.749c3.491,0,6.659,1.681,8.663,4.331v-39.305c0-4.396-3.556-7.952-7.952-7.952
	h-1.099H30.836h-1.099c-4.396,0-7.952,3.556-7.952,7.952v51.006c0,4.396,3.556,7.952,7.952,7.952h169.762l1.552-1.552
	c3.556-3.556,9.115-4.267,13.382-1.616l22.691,13.834h0.905l6.4-26.246C245.721,156.768,250.053,153.341,255.095,153.341z"/>
<path style="fill:#FFC10D;" d="M290.457,21.721H30.836c-4.978,0-9.051,4.073-9.051,9.051V79.58c0,4.978,4.008,9.051,9.051,9.051
	h259.62c4.913,0,9.05-4.008,9.05-9.051V30.772C299.507,25.794,295.499,21.721,290.457,21.721z"/>
<g>
	<path style="fill:#194F82;" d="M51.846,66.069h6.077c6.012,0,10.925-4.848,10.925-10.925S64,44.283,57.923,44.283h-6.077
		c-6.012,0-10.925,4.848-10.925,10.925S45.834,66.069,51.846,66.069z"/>
	<path style="fill:#194F82;" d="M94.901,66.069h6.077c6.012,0,10.925-4.848,10.925-10.925s-4.848-10.925-10.925-10.925h-6.077
		c-6.012,0-10.925,4.848-10.925,10.925S88.889,66.069,94.901,66.069z"/>
	<path style="fill:#194F82;" d="M138.02,66.069h6.077c6.012,0,10.925-4.848,10.925-10.925s-4.848-10.925-10.925-10.925h-6.077
		c-6.012,0-10.925,4.848-10.925,10.925S132.008,66.069,138.02,66.069z"/>
	<path style="fill:#194F82;" d="M51.846,154.764h6.077c6.012,0,10.925-4.848,10.925-10.925c0-6.012-4.848-10.925-10.925-10.925
		h-6.077c-6.012,0-10.925,4.848-10.925,10.925S45.834,154.764,51.846,154.764z"/>
	<path style="fill:#194F82;" d="M94.901,154.764h6.077c6.012,0,10.925-4.848,10.925-10.925c0-6.012-4.848-10.925-10.925-10.925
		h-6.077c-6.012,0-10.925,4.848-10.925,10.925S88.889,154.764,94.901,154.764z"/>
	<path style="fill:#194F82;" d="M138.02,154.764h6.077c6.012,0,10.925-4.848,10.925-10.925c0-6.012-4.848-10.925-10.925-10.925
		h-6.077c-6.012,0-10.925,4.848-10.925,10.925S132.008,154.764,138.02,154.764z"/>
	<path style="fill:#194F82;" d="M57.923,221.608h-6.077c-6.012,0-10.925,4.848-10.925,10.925c0,6.077,4.913,10.861,10.925,10.861
		h6.077c6.012,0,10.925-4.848,10.925-10.925S64,221.608,57.923,221.608z"/>
	<path style="fill:#194F82;" d="M101.042,221.608h-6.077c-6.012,0-10.925,4.848-10.925,10.925c0,6.077,4.913,10.861,10.925,10.861
		h6.077c6.012,0,10.925-4.848,10.925-10.925S107.119,221.608,101.042,221.608z"/>
	<path style="fill:#194F82;" d="M144.097,221.608h-6.077c-6.012,0-10.925,4.848-10.925,10.925c0,6.077,4.848,10.925,10.925,10.925
		h6.077c6.012,0,10.925-4.848,10.925-10.925C155.022,226.457,150.109,221.608,144.097,221.608z"/>
</g>
</svg>